<svg width="165" height="48" viewBox="0 0 165 48" fill="none" xmlns="http://www.w3.org/2000/svg">
<rect width="165" height="48" rx="10" fill="white"/>
<path d="M11.7 31V16.8H22.66V31H20.86V18.4H13.5V31H11.7ZM30.3355 31.2C29.5488 31.2 28.8355 31.06 28.1955 30.78C27.5555 30.4867 27.0021 30.0933 26.5355 29.6C26.0688 29.0933 25.7088 28.5133 25.4555 27.86C25.2021 27.2067 25.0755 26.52 25.0755 25.8C25.0755 25.0667 25.2021 24.3733 25.4555 23.72C25.7088 23.0667 26.0688 22.4933 26.5355 22C27.0021 21.4933 27.5555 21.1 28.1955 20.82C28.8488 20.5267 29.5688 20.38 30.3555 20.38C31.1288 20.38 31.8355 20.5267 32.4755 20.82C33.1155 21.1 33.6688 21.4933 34.1355 22C34.6155 22.4933 34.9821 23.0667 35.2355 23.72C35.4888 24.3733 35.6155 25.0667 35.6155 25.8C35.6155 26.52 35.4888 27.2067 35.2355 27.86C34.9821 28.5133 34.6221 29.0933 34.1555 29.6C33.6888 30.0933 33.1288 30.4867 32.4755 30.78C31.8355 31.06 31.1221 31.2 30.3355 31.2ZM26.8755 25.82C26.8755 26.54 27.0288 27.1933 27.3355 27.78C27.6555 28.3667 28.0755 28.8333 28.5955 29.18C29.1155 29.5133 29.6955 29.68 30.3355 29.68C30.9755 29.68 31.5555 29.5067 32.0755 29.16C32.6088 28.8133 33.0288 28.3467 33.3355 27.76C33.6555 27.16 33.8155 26.5 33.8155 25.78C33.8155 25.06 33.6555 24.4067 33.3355 23.82C33.0288 23.2333 32.6088 22.7667 32.0755 22.42C31.5555 22.0733 30.9755 21.9 30.3355 21.9C29.6955 21.9 29.1155 22.08 28.5955 22.44C28.0755 22.7867 27.6555 23.2533 27.3355 23.84C27.0288 24.4267 26.8755 25.0867 26.8755 25.82ZM36.5881 33.46V29.44H36.8081C37.1015 29.44 37.3681 29.3533 37.6081 29.18C37.8615 29.0067 38.0815 28.7067 38.2681 28.28C38.4681 27.84 38.6281 27.24 38.7481 26.48C38.8681 25.72 38.9481 24.7533 38.9881 23.58L39.0881 20.56H46.1881V29.44H47.6081V33.46H46.0481V31H38.1481V33.46H36.5881ZM39.2681 29.44H44.4281V22.12H40.6481L40.5881 23.74C40.5481 24.8733 40.4681 25.8267 40.3481 26.6C40.2415 27.36 40.0948 27.9667 39.9081 28.42C39.7348 28.8733 39.5215 29.2133 39.2681 29.44ZM55.1845 31.2C54.3312 31.2 53.5712 30.9867 52.9045 30.56C52.2379 30.1333 51.7112 29.5933 51.3245 28.94V35.26H49.5645V20.56H51.1245V22.52C51.5379 21.88 52.0779 21.3667 52.7445 20.98C53.4112 20.58 54.1379 20.38 54.9245 20.38C55.6445 20.38 56.3045 20.5267 56.9045 20.82C57.5045 21.1133 58.0245 21.5133 58.4645 22.02C58.9045 22.5267 59.2445 23.1067 59.4845 23.76C59.7379 24.4 59.8645 25.0733 59.8645 25.78C59.8645 26.7667 59.6645 27.6733 59.2645 28.5C58.8779 29.3267 58.3312 29.9867 57.6245 30.48C56.9179 30.96 56.1045 31.2 55.1845 31.2ZM54.6445 29.68C55.1645 29.68 55.6312 29.5733 56.0445 29.36C56.4712 29.1333 56.8312 28.84 57.1245 28.48C57.4312 28.1067 57.6645 27.6867 57.8245 27.22C57.9845 26.7533 58.0645 26.2733 58.0645 25.78C58.0645 25.26 57.9712 24.7667 57.7845 24.3C57.6112 23.8333 57.3579 23.42 57.0245 23.06C56.7045 22.7 56.3245 22.42 55.8845 22.22C55.4579 22.0067 54.9912 21.9 54.4845 21.9C54.1645 21.9 53.8312 21.96 53.4845 22.08C53.1512 22.2 52.8312 22.3733 52.5245 22.6C52.2179 22.8133 51.9579 23.06 51.7445 23.34C51.5312 23.62 51.3912 23.92 51.3245 24.24V27.22C51.5245 27.6733 51.7912 28.0867 52.1245 28.46C52.4579 28.8333 52.8445 29.1333 53.2845 29.36C53.7245 29.5733 54.1779 29.68 54.6445 29.68ZM66.5855 31.2C65.7988 31.2 65.0855 31.06 64.4455 30.78C63.8055 30.4867 63.2521 30.0933 62.7855 29.6C62.3188 29.0933 61.9588 28.5133 61.7055 27.86C61.4521 27.2067 61.3255 26.52 61.3255 25.8C61.3255 25.0667 61.4521 24.3733 61.7055 23.72C61.9588 23.0667 62.3188 22.4933 62.7855 22C63.2521 21.4933 63.8055 21.1 64.4455 20.82C65.0988 20.5267 65.8188 20.38 66.6055 20.38C67.3788 20.38 68.0855 20.5267 68.7255 20.82C69.3655 21.1 69.9188 21.4933 70.3855 22C70.8655 22.4933 71.2321 23.0667 71.4855 23.72C71.7388 24.3733 71.8655 25.0667 71.8655 25.8C71.8655 26.52 71.7388 27.2067 71.4855 27.86C71.2321 28.5133 70.8721 29.0933 70.4055 29.6C69.9388 30.0933 69.3788 30.4867 68.7255 30.78C68.0855 31.06 67.3721 31.2 66.5855 31.2ZM63.1255 25.82C63.1255 26.54 63.2788 27.1933 63.5855 27.78C63.9055 28.3667 64.3255 28.8333 64.8455 29.18C65.3655 29.5133 65.9455 29.68 66.5855 29.68C67.2255 29.68 67.8055 29.5067 68.3255 29.16C68.8588 28.8133 69.2788 28.3467 69.5855 27.76C69.9055 27.16 70.0655 26.5 70.0655 25.78C70.0655 25.06 69.9055 24.4067 69.5855 23.82C69.2788 23.2333 68.8588 22.7667 68.3255 22.42C67.8055 22.0733 67.2255 21.9 66.5855 21.9C65.9455 21.9 65.3655 22.08 64.8455 22.44C64.3255 22.7867 63.9055 23.2533 63.5855 23.84C63.2788 24.4267 63.1255 25.0867 63.1255 25.82ZM78.9181 31.2C77.1981 31.2 75.8981 30.68 75.0181 29.64C74.1381 28.6 73.6981 27.1333 73.6981 25.24C73.6981 23.9467 73.8048 22.86 74.0181 21.98C74.2315 21.0867 74.5515 20.3533 74.9781 19.78C75.4048 19.1933 75.9315 18.72 76.5581 18.36C77.1848 17.9867 77.9048 17.68 78.7181 17.44L83.1381 16.1L83.2381 17.62L78.9381 18.92C78.2048 19.16 77.5915 19.4667 77.0981 19.84C76.6048 20.2133 76.2181 20.6933 75.9381 21.28C75.6581 21.8667 75.4715 22.62 75.3781 23.54C75.7248 22.8333 76.2448 22.2867 76.9381 21.9C77.6315 21.5 78.4381 21.3 79.3581 21.3C80.3448 21.3 81.1915 21.5067 81.8981 21.92C82.6181 22.32 83.1648 22.8867 83.5381 23.62C83.9248 24.34 84.1181 25.1733 84.1181 26.12C84.1181 27.1333 83.9181 28.02 83.5181 28.78C83.1181 29.54 82.5315 30.1333 81.7581 30.56C80.9848 30.9867 80.0381 31.2 78.9181 31.2ZM78.9181 29.68C79.9981 29.68 80.8315 29.3667 81.4181 28.74C82.0181 28.1 82.3181 27.2533 82.3181 26.2C82.3181 25.1733 82.0248 24.34 81.4381 23.7C80.8515 23.06 80.0115 22.74 78.9181 22.74C78.2781 22.74 77.6981 22.8733 77.1781 23.14C76.6715 23.4067 76.2648 23.8 75.9581 24.32C75.6648 24.8267 75.5181 25.4533 75.5181 26.2C75.5181 26.8667 75.6448 27.4667 75.8981 28C76.1648 28.52 76.5515 28.9333 77.0581 29.24C77.5648 29.5333 78.1848 29.68 78.9181 29.68ZM86.2438 31V20.56H88.0038V24.88H93.4438V20.56H95.2038V31H93.4438V26.44H88.0038V31H86.2438ZM102.661 31.2C101.874 31.2 101.154 31.06 100.501 30.78C99.8611 30.4867 99.3011 30.0933 98.8211 29.6C98.3544 29.0933 97.9878 28.5133 97.7211 27.86C97.4678 27.2067 97.3411 26.5133 97.3411 25.78C97.3411 24.7933 97.5678 23.8933 98.0211 23.08C98.4744 22.2667 99.1011 21.6133 99.9011 21.12C100.714 20.6267 101.641 20.38 102.681 20.38C103.734 20.38 104.648 20.6333 105.421 21.14C106.208 21.6333 106.814 22.2867 107.241 23.1C107.681 23.9 107.901 24.7667 107.901 25.7C107.901 25.8333 107.894 25.9667 107.881 26.1C107.881 26.22 107.874 26.3133 107.861 26.38H99.2011C99.2544 27.06 99.4411 27.6667 99.7611 28.2C100.094 28.72 100.521 29.1333 101.041 29.44C101.561 29.7333 102.121 29.88 102.721 29.88C103.361 29.88 103.961 29.72 104.521 29.4C105.094 29.08 105.488 28.66 105.701 28.14L107.221 28.56C106.994 29.0667 106.654 29.52 106.201 29.92C105.761 30.32 105.234 30.6333 104.621 30.86C104.021 31.0867 103.368 31.2 102.661 31.2ZM99.1411 25.16H106.261C106.208 24.48 106.014 23.88 105.681 23.36C105.348 22.84 104.921 22.4333 104.401 22.14C103.881 21.8467 103.308 21.7 102.681 21.7C102.068 21.7 101.501 21.8467 100.981 22.14C100.461 22.4333 100.034 22.84 99.7011 23.36C99.3811 23.88 99.1944 24.48 99.1411 25.16ZM114.478 31.2C113.691 31.2 112.971 31.06 112.318 30.78C111.678 30.4867 111.118 30.0933 110.638 29.6C110.171 29.0933 109.804 28.5133 109.538 27.86C109.284 27.2067 109.158 26.5133 109.158 25.78C109.158 24.7933 109.384 23.8933 109.838 23.08C110.291 22.2667 110.918 21.6133 111.718 21.12C112.531 20.6267 113.458 20.38 114.498 20.38C115.551 20.38 116.464 20.6333 117.238 21.14C118.024 21.6333 118.631 22.2867 119.058 23.1C119.498 23.9 119.718 24.7667 119.718 25.7C119.718 25.8333 119.711 25.9667 119.698 26.1C119.698 26.22 119.691 26.3133 119.678 26.38H111.018C111.071 27.06 111.258 27.6667 111.578 28.2C111.911 28.72 112.338 29.1333 112.858 29.44C113.378 29.7333 113.938 29.88 114.538 29.88C115.178 29.88 115.778 29.72 116.338 29.4C116.911 29.08 117.304 28.66 117.518 28.14L119.038 28.56C118.811 29.0667 118.471 29.52 118.018 29.92C117.578 30.32 117.051 30.6333 116.438 30.86C115.838 31.0867 115.184 31.2 114.478 31.2ZM110.958 25.16H118.078C118.024 24.48 117.831 23.88 117.498 23.36C117.164 22.84 116.738 22.4333 116.218 22.14C115.698 21.8467 115.124 21.7 114.498 21.7C113.884 21.7 113.318 21.8467 112.798 22.14C112.278 22.4333 111.851 22.84 111.518 23.36C111.198 23.88 111.011 24.48 110.958 25.16Z" fill="#333333"/>
<path fill-rule="evenodd" clip-rule="evenodd" d="M143 16L141.59 17.41L147.17 23H135V25H147.17L141.59 30.59L143 32L151 24L143 16Z" fill="#333333"/>
</svg>
