<svg width="95" height="26" viewBox="0 0 95 26" fill="none" xmlns="http://www.w3.org/2000/svg">
<g clip-path="url(#clip0_226_402)">
<path d="M25 3H0" stroke="#333333" stroke-width="3"/>
<path d="M25 13H0" stroke="#333333" stroke-width="3"/>
<path d="M25 23H0" stroke="#333333" stroke-width="3"/>
<path d="M50.06 20V10.68L46.42 17.62H44.88L41.24 10.68V20H38.48V5.8H41.44L45.64 13.88L49.88 5.8H52.82V20H50.06ZM60.2089 20.2C59.3689 20.2 58.6089 20.06 57.9289 19.78C57.2489 19.4867 56.6689 19.0933 56.1889 18.6C55.7089 18.0933 55.3356 17.52 55.0689 16.88C54.8156 16.2267 54.6889 15.54 54.6889 14.82C54.6889 13.82 54.9089 12.9067 55.3489 12.08C55.8022 11.2533 56.4422 10.5933 57.2689 10.1C58.1089 9.59333 59.0956 9.34 60.2289 9.34C61.3756 9.34 62.3556 9.59333 63.1689 10.1C63.9822 10.5933 64.6022 11.2533 65.0289 12.08C65.4689 12.8933 65.6889 13.7733 65.6889 14.72C65.6889 14.88 65.6822 15.0467 65.6689 15.22C65.6556 15.38 65.6422 15.5133 65.6289 15.62H57.5289C57.5822 16.1533 57.7356 16.62 57.9889 17.02C58.2556 17.42 58.5889 17.7267 58.9889 17.94C59.4022 18.14 59.8422 18.24 60.3089 18.24C60.8422 18.24 61.3422 18.1133 61.8089 17.86C62.2889 17.5933 62.6156 17.2467 62.7889 16.82L65.0889 17.46C64.8356 17.9933 64.4689 18.4667 63.9889 18.88C63.5222 19.2933 62.9689 19.62 62.3289 19.86C61.6889 20.0867 60.9822 20.2 60.2089 20.2ZM57.4689 13.92H62.9489C62.8956 13.3867 62.7422 12.9267 62.4889 12.54C62.2489 12.14 61.9289 11.8333 61.5289 11.62C61.1289 11.3933 60.6822 11.28 60.1889 11.28C59.7089 11.28 59.2689 11.3933 58.8689 11.62C58.4822 11.8333 58.1622 12.14 57.9089 12.54C57.6689 12.9267 57.5222 13.3867 57.4689 13.92ZM67.3216 20V9.52H70.0016V13.52H74.2416V9.52H76.9216V20H74.2416V15.76H70.0016V20H67.3216ZM88.7923 20.2C87.8457 20.2 87.019 20.02 86.3123 19.66C85.6057 19.2867 85.0257 18.78 84.5723 18.14C84.1323 17.4867 83.839 16.7533 83.6923 15.94H82.0523V20H79.3723V9.52H82.0523V13.6H83.6923C83.839 12.7733 84.1323 12.04 84.5723 11.4C85.0257 10.7467 85.6123 10.24 86.3323 9.88C87.0523 9.52 87.8723 9.34 88.7923 9.34C89.9257 9.34 90.8857 9.58667 91.6723 10.08C92.459 10.5733 93.059 11.2333 93.4723 12.06C93.899 12.8733 94.1123 13.78 94.1123 14.78C94.1123 15.78 93.899 16.6933 93.4723 17.52C93.0457 18.3333 92.439 18.9867 91.6523 19.48C90.8657 19.96 89.9123 20.2 88.7923 20.2ZM88.7923 17.92C89.299 17.92 89.7457 17.7867 90.1323 17.52C90.519 17.2533 90.819 16.8867 91.0323 16.42C91.2457 15.9533 91.3523 15.4067 91.3523 14.78C91.3523 14.1267 91.239 13.5667 91.0123 13.1C90.799 12.62 90.499 12.2533 90.1123 12C89.7257 11.7467 89.2857 11.62 88.7923 11.62C88.3123 11.62 87.879 11.7533 87.4923 12.02C87.119 12.2733 86.8257 12.64 86.6123 13.12C86.399 13.5867 86.2923 14.14 86.2923 14.78C86.2923 15.42 86.399 15.98 86.6123 16.46C86.8257 16.9267 87.119 17.2867 87.4923 17.54C87.879 17.7933 88.3123 17.92 88.7923 17.92Z" fill="#333333"/>
</g>
<defs>
<clipPath id="clip0_226_402">
<rect width="95" height="26" fill="white"/>
</clipPath>
</defs>
</svg>
